<svg width="79" height="38" viewBox="0 0 79 38" fill="none" xmlns="http://www.w3.org/2000/svg">
<path d="M39.5 18.9669L49.7489 8.77574C55.4058 3.15074 64.5899 3.15074 70.1802 8.77574C75.7705 14.4007 75.8371 23.5331 70.1802 29.0919C64.5233 34.7169 55.3392 34.7169 49.7489 29.0919L39.5 18.9669ZM39.5 18.9669L29.1845 29.1581C23.5277 34.7831 14.3436 34.7831 8.75324 29.1581C3.09637 23.5331 3.09637 14.4007 8.75324 8.84191C14.4101 3.21691 23.5942 3.21691 29.1845 8.84191L39.5 18.9669ZM47.1534 31.739C54.2079 38.7537 65.6547 38.7537 72.7092 31.739C79.7636 24.7243 79.7636 13.3419 72.7092 6.32721C65.6547 -0.687499 54.2079 -0.687499 47.1534 6.32721L39.5 13.8713L52.2779 26.5772C56.4706 30.7463 63.2589 30.7463 67.4516 26.5772C71.6443 22.4081 71.6443 15.6581 67.4516 11.489C63.2589 7.31985 56.4706 7.31985 52.2779 11.489L39.5 24.1949L47.1534 31.739ZM31.8466 6.26103C24.7921 -0.753676 13.3453 -0.753676 6.29084 6.26103C-0.763613 13.2757 -0.763613 24.7243 6.29084 31.739C13.3453 38.7537 24.7921 38.7537 31.8466 31.739L39.4335 24.1949L26.6556 11.489C22.4628 7.31985 15.6746 7.31985 11.4818 11.489C7.28911 15.6581 7.28911 22.4081 11.4818 26.5772C15.6746 30.7463 22.4628 30.7463 26.6556 26.5772L39.4335 13.8713L31.8466 6.26103Z" stroke="#09CCF9" stroke-width="2" stroke-miterlimit="10"/>
</svg>
