<svg width="180" height="73" viewBox="0 0 180 73" fill="none" xmlns="http://www.w3.org/2000/svg">
<path d="M8.79 65.67H6.77L1.7 48.43C1.56667 47.9967 1.41 47.6733 1.23 47.46C1.05667 47.2467 0.766667 47.07 0.36 46.93L0 46.82V46.2H7.56V46.82L6.94 47.02C6.49333 47.16 6.20667 47.3567 6.08 47.61C5.95333 47.8633 5.94667 48.2133 6.06 48.66L9.26 60.66L12.74 50.27L12.21 48.57C12.0767 48.1633 11.94 47.8467 11.8 47.62C11.6667 47.3933 11.4433 47.2133 11.13 47.08L10.48 46.82V46.2H17.66V46.82L16.84 47.08C16.4467 47.2133 16.22 47.4067 16.16 47.66C16.1067 47.9133 16.1467 48.2567 16.28 48.69L19.97 60.84L23.36 48.86C23.5 48.4133 23.54 48.0233 23.48 47.69C23.42 47.3633 23.1667 47.13 22.72 46.99L22.14 46.82V46.2H26.47V46.82L25.74 47.05C25.3467 47.1833 25.0667 47.3833 24.9 47.65C24.7333 47.91 24.5933 48.2567 24.48 48.69L19.68 65.67H17.66L13.32 52.03L8.79 65.67ZM34.69 51.06C35.9233 51.06 36.9767 51.3133 37.85 51.82C38.73 52.3267 39.41 53.0233 39.89 53.91C40.37 54.8033 40.61 55.8233 40.61 56.97C40.61 57.2233 40.6 57.4633 40.58 57.69C40.56 57.9167 40.52 58.1267 40.46 58.32H31.65C31.67 60.3267 32.0467 61.77 32.78 62.65C33.5067 63.53 34.5733 63.97 35.98 63.97C36.96 63.97 37.75 63.81 38.35 63.49C38.9567 63.1633 39.5133 62.71 40.02 62.13L40.49 62.56C39.9033 63.6333 39.1067 64.47 38.1 65.07C37.1 65.6633 35.9067 65.96 34.52 65.96C33.1333 65.96 31.9133 65.6667 30.86 65.08C29.8067 64.4933 28.9833 63.65 28.39 62.55C27.79 61.45 27.49 60.1267 27.49 58.58C27.49 56.98 27.8367 55.6233 28.53 54.51C29.2233 53.4033 30.12 52.55 31.22 51.95C32.3267 51.3567 33.4833 51.06 34.69 51.06ZM34.55 51.91C33.9833 51.91 33.49 52.07 33.07 52.39C32.65 52.71 32.3167 53.2767 32.07 54.09C31.83 54.8967 31.69 56.0333 31.65 57.5H36.89C37.1033 55.5267 37.0233 54.1033 36.65 53.23C36.2833 52.35 35.5833 51.91 34.55 51.91ZM47.4 64.76L46.96 65.93L42.16 65.55V64.99L42.45 64.94C43.21 64.76 43.59 64.27 43.59 63.47V48.25C43.59 47.8567 43.5167 47.5533 43.37 47.34C43.2233 47.1267 42.9567 46.97 42.57 46.87L42.19 46.79V46.26L47.19 45L47.57 45.26L47.46 49.39V52.46C48.84 51.5267 50.3333 51.06 51.94 51.06C53.5733 51.06 54.9267 51.66 56 52.86C57.0733 54.06 57.61 55.91 57.61 58.41C57.61 60.07 57.3367 61.46 56.79 62.58C56.2433 63.7 55.5133 64.5433 54.6 65.11C53.68 65.6767 52.6633 65.96 51.55 65.96C50.81 65.96 50.0733 65.8633 49.34 65.67C48.6133 65.47 47.9667 65.1667 47.4 64.76ZM50.18 64.67C50.82 64.67 51.3867 64.4867 51.88 64.12C52.3667 63.7467 52.7467 63.11 53.02 62.21C53.2933 61.3167 53.43 60.0867 53.43 58.52C53.43 56.96 53.3033 55.7433 53.05 54.87C52.7967 53.99 52.43 53.3733 51.95 53.02C51.47 52.6667 50.9 52.49 50.24 52.49C49.36 52.49 48.46 52.7467 47.54 53.26V63.94C48.34 64.4267 49.22 64.67 50.18 64.67ZM64.26 64.76L63.82 65.93L59.02 65.55V64.99L59.31 64.94C60.07 64.76 60.45 64.27 60.45 63.47V48.25C60.45 47.8567 60.3767 47.5533 60.23 47.34C60.0833 47.1267 59.8167 46.97 59.43 46.87L59.05 46.79V46.26L64.05 45L64.43 45.26L64.32 49.39V52.46C65.7067 51.5267 67.2 51.06 68.8 51.06C70.44 51.06 71.7967 51.66 72.87 52.86C73.9433 54.06 74.48 55.91 74.48 58.41C74.48 60.07 74.2067 61.46 73.66 62.58C73.1133 63.7 72.38 64.5433 71.46 65.11C70.54 65.6767 69.5267 65.96 68.42 65.96C67.6733 65.96 66.9367 65.8633 66.21 65.67C65.4767 65.47 64.8267 65.1667 64.26 64.76ZM67.04 64.67C67.6867 64.67 68.2533 64.4867 68.74 64.12C69.2267 63.7467 69.6067 63.11 69.88 62.21C70.1533 61.3167 70.29 60.0867 70.29 58.52C70.29 56.96 70.1633 55.7433 69.91 54.87C69.6567 53.99 69.29 53.3733 68.81 53.02C68.33 52.6667 67.76 52.49 67.1 52.49C66.22 52.49 65.3233 52.7467 64.41 53.26V63.94C65.21 64.4267 66.0867 64.67 67.04 64.67ZM78.4 72.6C77.62 72.6 77.0033 72.4167 76.55 72.05C76.1033 71.6767 75.88 71.1867 75.88 70.58C75.88 70.04 76.07 69.6067 76.45 69.28C76.83 68.96 77.2533 68.8 77.72 68.8C78.2133 68.8 78.6167 68.8867 78.93 69.06C79.2367 69.24 79.5067 69.4933 79.74 69.82L79.92 70.06C80.3667 70.6067 80.7867 70.5967 81.18 70.03C81.4333 69.6967 81.6833 69.2867 81.93 68.8C82.17 68.3133 82.4367 67.67 82.73 66.87L77.17 53.58C77.03 53.2067 76.8733 52.9167 76.7 52.71C76.5267 52.51 76.2633 52.34 75.91 52.2L75.41 52.03V51.5H82.64V52.03L82.03 52.2C81.5967 52.34 81.3667 52.55 81.34 52.83C81.3133 53.1167 81.3767 53.4833 81.53 53.93L84.52 61.72L87.38 53.87C87.54 53.4433 87.6 53.0833 87.56 52.79C87.52 52.4967 87.2767 52.3 86.83 52.2L86.18 52.03V51.5H90.55V52.03L89.9 52.23C89.4733 52.35 89.1667 52.52 88.98 52.74C88.7933 52.9667 88.6233 53.2933 88.47 53.72L83.78 66.31C83 68.4567 82.2067 70.0433 81.4 71.07C80.5867 72.09 79.5867 72.6 78.4 72.6ZM97.81 66.05C96.7367 66.05 95.6467 65.9167 94.54 65.65C93.44 65.39 92.52 65.0433 91.78 64.61L91.95 60.54H92.8L93.71 62.56C93.9833 63.1267 94.2667 63.5967 94.56 63.97C94.8533 64.3433 95.2433 64.6267 95.73 64.82C96.0633 64.9533 96.38 65.0467 96.68 65.1C96.98 65.1467 97.3167 65.17 97.69 65.17C98.8767 65.17 99.8167 64.8633 100.51 64.25C101.203 63.6367 101.55 62.82 101.55 61.8C101.55 60.8867 101.313 60.1667 100.84 59.64C100.36 59.1133 99.5933 58.6033 98.54 58.11L97.34 57.59C95.7 56.8633 94.4067 56.0233 93.46 55.07C92.5133 54.1167 92.04 52.8467 92.04 51.26C92.04 50.0933 92.3367 49.0933 92.93 48.26C93.53 47.4333 94.3567 46.7967 95.41 46.35C96.4633 45.8967 97.69 45.67 99.09 45.67C100.13 45.67 101.103 45.8067 102.01 46.08C102.917 46.3533 103.71 46.7267 104.39 47.2L104.19 50.83H103.34L102.26 48.63C101.947 47.9833 101.647 47.52 101.36 47.24C101.08 46.96 100.733 46.78 100.32 46.7C100.087 46.66 99.8867 46.63 99.72 46.61C99.5533 46.59 99.3333 46.58 99.06 46.58C98.1067 46.58 97.2833 46.86 96.59 47.42C95.8967 47.9733 95.55 48.7367 95.55 49.71C95.55 50.65 95.8133 51.4133 96.34 52C96.8667 52.58 97.63 53.0967 98.63 53.55L99.94 54.1C101.833 54.92 103.19 55.7933 104.01 56.72C104.83 57.6467 105.24 58.8333 105.24 60.28C105.24 62 104.59 63.39 103.29 64.45C101.997 65.5167 100.17 66.05 97.81 66.05ZM114.02 51.06C115.253 51.06 116.307 51.3133 117.18 51.82C118.06 52.3267 118.74 53.0233 119.22 53.91C119.7 54.8033 119.94 55.8233 119.94 56.97C119.94 57.2233 119.93 57.4633 119.91 57.69C119.89 57.9167 119.85 58.1267 119.79 58.32H110.98C111 60.3267 111.377 61.77 112.11 62.65C112.837 63.53 113.903 63.97 115.31 63.97C116.29 63.97 117.08 63.81 117.68 63.49C118.287 63.1633 118.843 62.71 119.35 62.13L119.82 62.56C119.233 63.6333 118.437 64.47 117.43 65.07C116.43 65.6633 115.237 65.96 113.85 65.96C112.463 65.96 111.243 65.6667 110.19 65.08C109.137 64.4933 108.313 63.65 107.72 62.55C107.12 61.45 106.82 60.1267 106.82 58.58C106.82 56.98 107.167 55.6233 107.86 54.51C108.553 53.4033 109.45 52.55 110.55 51.95C111.657 51.3567 112.813 51.06 114.02 51.06ZM113.88 51.91C113.313 51.91 112.82 52.07 112.4 52.39C111.98 52.71 111.647 53.2767 111.4 54.09C111.16 54.8967 111.02 56.0333 110.98 57.5H116.22C116.433 55.5267 116.353 54.1033 115.98 53.23C115.613 52.35 114.913 51.91 113.88 51.91ZM125.67 65.96C124.563 65.96 123.623 65.6433 122.85 65.01C122.077 64.3767 121.69 63.4633 121.69 62.27C121.69 61.3367 122.143 60.4733 123.05 59.68C123.963 58.8933 125.393 58.3133 127.34 57.94C127.673 57.86 128.06 57.7867 128.5 57.72C128.94 57.6533 129.373 57.58 129.8 57.5V55.42C129.8 54.0933 129.633 53.1767 129.3 52.67C128.973 52.1633 128.447 51.91 127.72 51.91H127.64C127.187 51.91 126.83 52.05 126.57 52.33C126.303 52.6167 126.13 53.08 126.05 53.72L125.97 54.1C125.91 54.8867 125.703 55.46 125.35 55.82C125.003 56.18 124.563 56.36 124.03 56.36C123.543 56.36 123.14 56.2067 122.82 55.9C122.5 55.6 122.34 55.2067 122.34 54.72C122.34 53.92 122.613 53.2467 123.16 52.7C123.707 52.1533 124.433 51.7433 125.34 51.47C126.247 51.1967 127.227 51.06 128.28 51.06C130.013 51.06 131.34 51.48 132.26 52.32C133.18 53.16 133.64 54.5267 133.64 56.42V62.94C133.64 63.78 134.04 64.2 134.84 64.2H135.51L135.8 64.53C135.453 64.9767 135.063 65.32 134.63 65.56C134.203 65.8067 133.62 65.93 132.88 65.93C132.04 65.93 131.37 65.73 130.87 65.33C130.37 64.93 130.043 64.4 129.89 63.74C129.263 64.4 128.65 64.9367 128.05 65.35C127.443 65.7567 126.65 65.96 125.67 65.96ZM127.37 64.09C127.763 64.09 128.133 64 128.48 63.82C128.833 63.6467 129.273 63.3533 129.8 62.94V58.26C129.293 58.34 128.777 58.4367 128.25 58.55C127.41 58.75 126.733 59.1133 126.22 59.64C125.7 60.1667 125.44 60.8767 125.44 61.77C125.44 62.55 125.62 63.1333 125.98 63.52C126.34 63.9 126.803 64.09 127.37 64.09ZM143.79 65.55H136.48V64.99L136.91 64.85C137.303 64.75 137.573 64.5833 137.72 64.35C137.867 64.1167 137.94 63.8033 137.94 63.41V54.84C137.92 54.4067 137.843 54.08 137.71 53.86C137.57 53.6333 137.303 53.48 136.91 53.4L136.48 53.28V52.76L141.25 51.06L141.6 51.38L141.86 53.96V54.16C142.153 53.6133 142.523 53.1067 142.97 52.64C143.423 52.1733 143.913 51.7933 144.44 51.5C144.967 51.2067 145.493 51.06 146.02 51.06C146.76 51.06 147.317 51.2567 147.69 51.65C148.057 52.0367 148.24 52.5333 148.24 53.14C148.24 53.8 148.057 54.3033 147.69 54.65C147.317 54.99 146.867 55.16 146.34 55.16C145.56 55.16 144.887 54.8067 144.32 54.1L144.26 54.05C144.067 53.81 143.847 53.6767 143.6 53.65C143.36 53.6233 143.123 53.7467 142.89 54.02C142.69 54.2133 142.51 54.44 142.35 54.7C142.183 54.9667 142.03 55.2767 141.89 55.63V63.3C141.89 63.6667 141.97 63.9733 142.13 64.22C142.283 64.46 142.547 64.63 142.92 64.73L143.79 64.99V65.55ZM156.38 65.96C155.053 65.96 153.853 65.6733 152.78 65.1C151.707 64.52 150.863 63.68 150.25 62.58C149.637 61.4733 149.33 60.13 149.33 58.55C149.33 56.97 149.67 55.6233 150.35 54.51C151.037 53.4033 151.95 52.55 153.09 51.95C154.23 51.3567 155.483 51.06 156.85 51.06C157.963 51.06 158.91 51.2467 159.69 51.62C160.47 51.9867 161.067 52.46 161.48 53.04C161.887 53.6133 162.09 54.2233 162.09 54.87C162.09 55.41 161.93 55.8267 161.61 56.12C161.283 56.4133 160.867 56.56 160.36 56.56C159.813 56.56 159.37 56.3667 159.03 55.98C158.69 55.5867 158.49 55.0867 158.43 54.48C158.41 54.0933 158.417 53.7633 158.45 53.49C158.477 53.2167 158.47 52.9533 158.43 52.7C158.35 52.3667 158.22 52.1433 158.04 52.03C157.853 51.91 157.593 51.85 157.26 51.85C156.033 51.85 155.09 52.3433 154.43 53.33C153.777 54.3167 153.45 55.91 153.45 58.11C153.45 60.0033 153.813 61.46 154.54 62.48C155.26 63.4933 156.38 64 157.9 64C158.8 64 159.543 63.83 160.13 63.49C160.717 63.1433 161.253 62.65 161.74 62.01L162.21 62.36C161.723 63.5333 160.977 64.4267 159.97 65.04C158.963 65.6533 157.767 65.96 156.38 65.96ZM170.32 65.55H163.64V64.96L164.02 64.85C164.727 64.6367 165.08 64.1467 165.08 63.38V48.31C165.08 47.8967 165.01 47.59 164.87 47.39C164.737 47.1833 164.473 47.03 164.08 46.93L163.64 46.82V46.26L168.59 45L169.06 45.26L168.94 49.39V53.14C169.62 52.5733 170.367 52.0833 171.18 51.67C171.987 51.2633 172.86 51.06 173.8 51.06C175.087 51.06 176.097 51.42 176.83 52.14C177.563 52.8667 177.93 53.98 177.93 55.48V63.41C177.93 63.8033 178.007 64.1167 178.16 64.35C178.313 64.5833 178.587 64.76 178.98 64.88L179.24 64.96V65.55H172.57V64.96L172.92 64.85C173.62 64.65 173.97 64.16 173.97 63.38V54.92C173.97 54.12 173.833 53.5667 173.56 53.26C173.293 52.9467 172.817 52.79 172.13 52.79C171.663 52.79 171.17 52.8767 170.65 53.05C170.137 53.2233 169.597 53.5167 169.03 53.93V63.44C169.03 63.8333 169.107 64.1467 169.26 64.38C169.42 64.6133 169.683 64.78 170.05 64.88L170.32 64.96V65.55Z" fill="#020E27"/>
<path d="M90.5 18.9669L100.749 8.77574C106.406 3.15074 115.59 3.15074 121.18 8.77574C126.771 14.4007 126.837 23.5331 121.18 29.0919C115.523 34.7169 106.339 34.7169 100.749 29.0919L90.5 18.9669ZM90.5 18.9669L80.1845 29.1581C74.5277 34.7831 65.3436 34.7831 59.7532 29.1581C54.0964 23.5331 54.0964 14.4007 59.7532 8.84191C65.4101 3.21691 74.5942 3.21691 80.1845 8.84191L90.5 18.9669ZM98.1534 31.739C105.208 38.7537 116.655 38.7537 123.709 31.739C130.764 24.7243 130.764 13.3419 123.709 6.32721C116.655 -0.687499 105.208 -0.687499 98.1534 6.32721L90.5 13.8713L103.278 26.5772C107.471 30.7463 114.259 30.7463 118.452 26.5772C122.644 22.4081 122.644 15.6581 118.452 11.489C114.259 7.31985 107.471 7.31985 103.278 11.489L90.5 24.1949L98.1534 31.739ZM82.8466 6.26103C75.7921 -0.753676 64.3453 -0.753676 57.2908 6.26103C50.2364 13.2757 50.2364 24.7243 57.2908 31.739C64.3453 38.7537 75.7921 38.7537 82.8466 31.739L90.4335 24.1949L77.6556 11.489C73.4628 7.31985 66.6746 7.31985 62.4818 11.489C58.2891 15.6581 58.2891 22.4081 62.4818 26.5772C66.6746 30.7463 73.4628 30.7463 77.6556 26.5772L90.4335 13.8713L82.8466 6.26103Z" stroke="#09CCF9" stroke-width="2" stroke-miterlimit="10"/>
</svg>
